<svg width="143" height="131" viewBox="0 0 143 131" fill="none" xmlns="http://www.w3.org/2000/svg">
    <g clip-path="url(#clip0_0_88)">
        <path d="M154.817 102.459C155.058 101.11 155.3 99.7612 155.784 97.0633C156.025 95.7143 156.025 95.7143 156.267 94.3654C156.509 93.0164 156.509 93.0164 156.75 91.6674L156.992 90.3185L157.234 88.9695C157.475 87.6205 157.475 87.6205 157.717 86.2716C157.717 86.2716 157.717 86.2716 157.475 87.6205L157.717 86.2716L157.959 84.9226L158.201 83.5737L158.442 82.2247C158.442 82.2247 158.442 82.2247 158.201 83.5737C158.201 83.5737 158.201 83.5737 157.959 84.9226L158.201 83.5737L158.442 82.2247L158.684 80.8757C158.926 79.5268 157.795 77.932 158.037 76.583C155.776 73.3934 155.129 69.1006 153.11 64.562C152.463 60.2693 150.202 57.0797 148.183 52.5411C148.183 52.5411 148.183 52.5411 148.425 51.1921L147.295 49.5973C147.295 49.5973 147.536 48.2483 146.164 48.0025C146.164 48.0025 146.406 46.6535 145.034 46.4077C145.276 45.0587 143.904 44.8129 143.904 44.8129C143.904 44.8129 143.904 44.8129 142.773 43.2181C142.773 43.2181 142.773 43.2181 141.643 41.6233L140.512 40.0284C140.512 40.0284 140.512 40.0284 139.382 38.4336C139.382 38.4336 139.382 38.4336 138.252 36.8388C138.252 36.8388 138.252 36.8388 137.121 35.244C137.121 35.244 135.749 34.9982 135.991 33.6492C135.991 33.6492 134.619 33.4033 134.861 32.0544C134.861 32.0544 133.488 31.8085 133.73 30.4596C135.991 33.6492 134.861 32.0544 134.861 32.0544C133.488 31.8085 132.358 30.2137 132.358 30.2137C132.358 30.2137 130.986 29.9679 131.228 28.6189C131.228 28.6189 129.856 28.3731 130.097 27.0241C130.097 27.0241 131.228 28.6189 132.6 28.8648L133.73 30.4596C132.358 30.2137 132.6 28.8648 131.228 28.6189C131.228 28.6189 129.856 28.3731 130.097 27.0241C130.097 27.0241 128.725 26.7782 128.967 25.4293C128.967 25.4293 128.967 25.4293 130.339 25.6751C124.851 24.6917 120.976 22.6052 115.729 20.2729C114.357 20.027 112.985 19.7812 112.985 19.7812C109.352 16.3457 105.236 15.6082 102.734 13.7675C98.6174 13.03 94.5012 12.2924 90.3849 11.5549L89.0128 11.309L90.3849 11.5549L91.757 11.8007C93.1291 12.0466 94.5012 12.2924 94.5012 12.2924C95.8733 12.5383 98.6174 13.03 99.9895 13.2758L98.6174 13.03L97.2453 12.7841L95.8733 12.5383L94.5012 12.2924L91.757 11.8007C93.1291 12.0466 94.5012 12.2924 95.8733 12.5383L99.9895 13.2758C101.362 13.5217 101.362 13.5217 102.734 13.7675L104.106 14.0133L105.478 14.2592C106.85 14.505 106.85 14.505 108.222 14.7509L110.966 15.2426L112.338 15.4884C110.966 15.2426 110.966 15.2426 109.594 14.9967L108.222 14.7509C105.478 14.2592 103.864 15.3623 105.236 15.6082C105.236 15.6082 106.608 15.854 107.739 17.4488C107.739 17.4488 107.739 17.4488 109.111 17.6947L110.483 17.9405C111.855 18.1864 111.855 18.1864 113.227 18.4322L114.599 18.6781L113.227 18.4322C111.855 18.1864 110.483 17.9405 110.483 17.9405C109.111 17.6947 109.111 17.6947 107.739 17.4488L106.367 17.203C106.367 17.203 106.367 17.203 104.994 16.9571C103.622 16.7113 104.994 16.9571 104.753 18.3061L106.125 18.5519C106.125 18.5519 107.497 18.7978 108.869 19.0436C110.241 19.2895 110.241 19.2895 111.613 19.5353C112.985 19.7812 114.357 20.027 114.357 20.027C113.149 26.7718 117.023 28.8584 120.898 30.9449C122.27 31.1907 122.028 32.5397 123.4 32.7855C123.4 32.7855 123.4 32.7855 122.028 32.5397C119.768 29.35 117.265 27.5094 114.521 27.0177C114.521 27.0177 114.521 27.0177 113.149 26.7718C113.149 26.7718 113.149 26.7718 111.777 26.526C111.777 26.526 111.777 26.526 113.149 26.7718C113.149 26.7718 113.149 26.7718 114.521 27.0177C115.893 27.2635 117.023 28.8584 118.395 29.1042C123.642 31.4366 127.275 34.872 129.777 36.7127C129.777 36.7127 128.405 36.4668 128.647 35.1179C128.647 35.1179 127.275 34.872 127.517 33.5231L126.145 33.2772L124.773 33.0314C124.773 33.0314 123.4 32.7855 123.642 31.4366C122.27 31.1907 122.27 31.1907 122.512 29.8417L121.14 29.5959C119.526 30.699 119.526 30.699 119.526 30.699C119.526 30.699 119.526 30.699 118.154 30.4532C118.154 30.4532 118.154 30.4532 116.782 30.2073L115.41 29.9615C115.41 29.9615 115.41 29.9615 114.038 29.7156L112.665 29.4698L111.293 29.2239L109.921 28.9781C109.921 28.9781 109.921 28.9781 108.549 28.7322L107.177 28.4864L105.805 28.2405C105.805 28.2405 104.433 27.9947 103.061 27.7488C103.061 27.7488 103.061 27.7488 104.433 27.9947C104.433 27.9947 104.433 27.9947 103.061 27.7488C103.061 27.7488 103.061 27.7488 100.558 25.9082L99.1863 25.6623C99.1863 25.6623 99.1863 25.6623 97.8142 25.4165C97.8142 25.4165 97.8142 25.4165 99.1863 25.6623C99.1863 25.6623 99.1863 25.6623 100.558 25.9082C100.558 25.9082 100.558 25.9082 101.689 27.503C101.689 27.503 101.689 27.503 103.061 27.7488C103.061 27.7488 104.433 27.9947 105.805 28.2405C105.805 28.2405 105.805 28.2405 107.177 28.4864C107.177 28.4864 107.177 28.4864 108.549 28.7322C108.549 28.7322 109.921 28.9781 111.293 29.2239C111.293 29.2239 111.293 29.2239 112.665 29.4698C114.038 29.7156 114.038 29.7156 113.796 31.0646L112.424 30.8187C111.052 30.5729 111.052 30.5729 112.424 30.8187C111.052 30.5729 111.052 30.5729 110.81 31.9219L109.438 31.676C108.066 31.4302 108.066 31.4302 106.694 31.1843C106.452 32.5333 105.08 32.2874 105.08 32.2874L103.708 32.0416C99.8332 29.9551 95.9587 27.8686 93.2145 27.3769L94.5866 27.6227C94.5866 27.6227 94.5866 27.6227 95.9587 27.8686C95.9587 27.8686 95.9587 27.8686 97.3308 28.1144L98.7028 28.3603L100.075 28.6061C100.075 28.6061 100.075 28.6061 101.447 28.8519C101.447 28.8519 101.447 28.8519 102.819 29.0978L104.191 29.3436L105.563 29.5895L106.935 29.8353C102.336 31.7957 98.2194 31.0582 95.717 29.2175C94.3449 28.9717 94.3449 28.9717 92.9728 28.7258C91.6007 28.48 91.6007 28.48 90.2286 28.2341C88.8565 27.9883 88.8565 27.9883 87.4844 27.7424C86.1123 27.4966 86.1124 27.4966 84.7403 27.2507L86.3541 26.1476C83.6099 25.6559 79.2519 26.2673 76.266 27.1246L74.8939 26.8788L73.5219 26.6329C73.5219 26.6329 73.5219 26.6329 72.1498 26.3871C72.1498 26.3871 72.1498 26.3871 70.7777 26.1412C72.1498 26.3871 73.7636 25.2839 75.1356 25.5298C77.8798 26.0215 80.624 26.5132 84.982 25.9018L86.3541 26.1476C87.7261 26.3935 87.7262 26.3935 89.0982 26.6393C90.4703 26.8852 90.4703 26.8852 91.8424 27.131L90.4703 26.8852L89.0982 26.6393L90.4703 26.8852C90.4703 26.8852 90.4703 26.8852 92.0841 25.782C90.712 25.5362 92.0841 25.782 94.8283 26.2737L96.2004 26.5196C96.2004 26.5196 96.2004 26.5196 94.8283 26.2737L93.4562 26.0279L92.0841 25.782C90.712 25.5362 90.712 25.5362 89.3399 25.2904L86.5958 24.7987C85.2237 24.5528 85.2237 24.5528 83.8516 24.307L82.4795 24.0611L81.1074 23.8153L79.7353 23.5694L78.3632 23.3236C78.3632 23.3236 78.3632 23.3236 79.7353 23.5694C81.1074 23.8153 85.2237 24.5528 89.5816 23.9414L89.8234 22.5924L90.0651 21.2435C85.7071 21.8549 81.3491 22.4663 76.9912 23.0777C76.9912 23.0777 78.3632 23.3236 76.9912 23.0777L75.6191 22.8319C71.2611 23.4433 66.9031 24.0547 62.3035 26.0151L60.9314 25.7692L62.5452 24.6661L64.1589 23.563C64.1589 23.563 65.531 23.8089 65.7727 22.4599L67.3865 21.3568L68.7586 21.6026C70.1307 21.8485 71.7445 20.7454 73.1166 20.9912C79.0884 19.2767 84.8184 18.9111 90.3068 19.8945L91.6788 20.1403C91.6788 20.1403 91.6788 20.1403 93.0509 20.3862L94.423 20.632C95.7951 20.8779 95.7951 20.8779 95.7951 20.8779L94.423 20.632L93.0509 20.3862C93.0509 20.3862 91.6788 20.1403 90.3068 19.8945L88.9347 19.6486C88.9347 19.6486 88.9347 19.6486 87.5626 19.4028L86.1905 19.157L84.8184 18.9111L83.4463 18.6653C76.5859 17.436 73.6 18.2933 70.6141 19.1505C70.6141 19.1505 69.242 18.9047 69.0003 20.2537C69.0003 20.2537 67.6282 20.0078 67.3865 21.3568C66.2562 19.762 66.2562 19.762 64.6424 20.8651L63.2703 20.6192C63.2703 20.6192 63.2703 20.6192 61.8982 20.3734L60.5261 20.1275C59.154 19.8817 59.154 19.8817 57.5402 20.9848C56.1681 20.739 55.9264 22.0879 54.5543 21.8421C53.1822 21.5962 52.9405 22.9452 51.5685 22.6993C51.5685 22.6993 50.1964 22.4535 49.9547 23.8025C49.9547 23.8025 48.5826 23.5566 48.3409 24.9056C49.713 25.1514 48.0992 26.2545 48.0992 26.2545C48.0992 26.2545 46.7271 26.0087 46.4854 27.3577L47.8575 27.6035C46.4854 27.3577 46.2437 28.7066 44.8716 28.4608L44.6299 29.8097L44.3882 31.1587L41.4023 32.016L39.7885 33.1191C39.7885 33.1191 39.7885 33.1191 38.1747 34.2222C38.1747 34.2222 37.933 35.5712 36.5609 35.3253C36.5609 35.3253 36.3192 36.6743 34.9471 36.4284C34.9471 36.4284 34.9471 36.4284 34.7054 37.7774L34.4637 39.1263L34.222 40.4753L33.9803 41.8243C30.7527 44.0305 27.2834 47.5857 25.4279 50.0378C25.4279 50.0378 25.6696 48.6888 27.0417 48.9347L28.6555 47.8316C28.6555 47.8316 28.6555 47.8316 28.4138 49.1805C28.1721 50.5295 26.5583 51.6326 26.0749 54.3305L25.8332 55.6795L25.5915 57.0284L25.3498 58.3774L25.5915 57.0284L25.8332 55.6795L26.0749 54.3305L26.3166 52.9816L26.5583 51.6326L26.8 50.2836C27.7668 44.8878 29.6223 42.4357 31.7195 38.6347L33.3333 37.5315C33.3333 37.5315 33.575 36.1826 34.9471 36.4284L35.1888 35.0795C36.8026 33.9763 38.4164 32.8732 40.0302 31.7701C40.0302 31.7701 40.0302 31.7701 41.644 30.667C43.4995 28.2149 46.7271 26.0087 49.9547 23.8025C48.5826 23.5566 48.3409 24.9056 46.9688 24.6597C46.9688 24.6597 46.9688 24.6597 45.355 25.7628C40.5136 29.0722 37.286 31.2784 35.4305 33.7305L35.6722 32.3815C32.2029 35.9367 28.7337 39.4919 26.3947 44.6419C26.153 45.9909 26.153 45.9909 24.5392 47.094L24.2975 48.443L24.0558 49.7919C21.9586 53.593 20.3448 54.6961 20.1031 56.0451C19.8614 57.394 19.8614 57.394 19.6197 58.743C19.378 60.0919 19.378 60.0919 19.1363 61.4409C18.8946 62.7899 18.8946 62.7899 18.6529 64.1388C18.4112 65.4878 18.4112 65.4878 18.1695 66.8368L17.9278 68.1857L17.6861 69.5347C17.4444 70.8837 17.4444 70.8837 17.2027 72.2326C16.961 73.5816 16.961 73.5816 16.7193 74.9305C16.7193 74.9305 16.7193 74.9305 16.4776 76.2795L16.2359 77.6285L15.9942 78.9774C16.2359 77.6285 16.2359 77.6285 16.4776 76.2795L16.7193 74.9305C16.961 73.5816 17.4444 70.8837 17.6861 69.5347C18.4112 65.4878 20.2667 63.0357 22.3639 59.2347C24.4611 55.4336 25.1862 51.3867 28.6555 47.8316C22.6837 49.5461 20.5865 53.3471 18.2476 58.4971C15.4253 66.3451 14.2168 73.0899 14.1387 81.4295L13.8969 82.7785C13.0083 79.8347 12.3613 75.542 13.0864 71.4951C13.8115 67.4482 14.5366 63.4013 16.6338 59.6003C21.07 50.6492 25.5061 41.6982 31.0726 34.3419L29.4588 35.445C29.4588 35.445 29.4588 35.445 29.2171 36.794C29.2171 36.794 29.2171 36.794 28.9754 38.143C28.7336 39.4919 27.3616 39.2461 27.1199 40.595L26.8782 41.944C23.8923 42.8013 23.4089 45.4992 21.7951 46.6023C21.5534 47.9513 21.5534 47.9513 19.9396 49.0544C19.6979 50.4033 19.6979 50.4034 18.0841 51.5065C11.5508 64.2586 9.13371 77.7482 11.3163 89.2774L11.0746 90.6264C10.8329 91.9754 10.5912 93.3243 11.4799 96.2681C11.2382 97.6171 11.2382 97.6171 10.9965 98.966L10.7548 100.315L10.5131 101.664C10.2714 103.013 11.4018 104.608 11.4018 104.608C11.1601 105.957 12.5321 106.203 12.2904 107.552C12.5321 106.203 11.1601 105.957 11.4018 104.608L11.6435 103.259L11.8852 101.91L12.1269 100.561L12.3686 99.2119L12.6103 97.8629C12.3686 99.2119 12.3686 99.2119 13.499 100.807C13.2573 102.156 13.2573 102.156 14.3876 103.75L15.2763 106.694L13.4208 109.146L13.1791 110.495C13.1791 110.495 12.9374 111.844 14.3095 112.09C14.3095 112.09 14.0678 113.439 15.4399 113.685C15.4399 113.685 15.1982 115.034 16.5703 115.28C16.5703 115.28 16.3286 116.629 17.7006 116.875L18.831 118.469C17.2172 119.572 18.3476 121.167 19.478 122.762C20.3667 125.706 22.8692 127.547 25.1299 130.736L23.9995 129.141L21.4971 127.301C21.7388 125.952 20.6084 124.357 19.2363 124.111L18.9946 125.46C22.6274 128.896 26.0186 133.68 29.6514 137.115L30.7818 138.71L31.9122 140.305C31.9122 140.305 31.9122 140.305 30.7818 138.71L31.9122 140.305L33.0426 141.9C34.4147 142.146 35.5451 143.74 36.9172 143.986C40.7917 146.073 44.6663 148.159 48.5408 150.246C55.1596 152.824 63.3921 154.299 68.8804 155.283C70.2525 155.528 71.6246 155.774 73.2384 154.671C74.6105 154.917 74.6105 154.917 75.9826 155.163C77.3547 155.409 77.3547 155.409 78.7268 155.655L80.0989 155.9C80.0989 155.9 80.0989 155.9 81.4709 156.146C87.201 155.781 92.931 155.415 98.9028 153.701L100.275 153.946L101.647 154.192C103.019 154.438 103.019 154.438 104.633 153.335C110.605 151.62 112.218 150.517 115.204 149.66L116.818 148.557L118.432 147.454C118.432 147.454 118.432 147.454 119.804 147.7C119.804 147.7 119.804 147.7 121.418 146.597L123.032 145.493C124.404 145.739 126.017 144.636 127.631 143.533C127.631 143.533 129.003 143.779 129.245 142.43L130.859 141.327C134.328 137.772 137.556 135.565 139.653 131.764C139.653 131.764 139.411 133.113 138.039 132.867C138.039 132.867 137.797 134.216 136.425 133.971C136.425 133.971 136.184 135.32 134.812 135.074C134.812 135.074 134.57 136.423 133.198 136.177L134.812 135.074L136.425 133.971C136.425 133.971 136.667 132.622 138.039 132.867C138.039 132.867 138.281 131.519 139.653 131.764C141.75 127.963 143.606 125.511 145.219 124.408L145.461 123.059C147.558 119.258 149.655 115.457 151.994 110.307C152.236 108.958 152.478 107.609 154.092 106.506C154.333 105.157 154.575 103.808 154.817 102.459C156.431 101.356 156.672 100.007 156.672 100.007C155.058 101.11 155.058 101.11 154.817 102.459ZM108.791 27.3833C108.791 27.3833 110.163 27.6291 108.791 27.3833C110.163 27.6291 110.163 27.6291 108.791 27.3833ZM137.69 47.8764C139.062 48.1222 140.193 49.717 139.951 51.066L141.081 52.6608L142.212 54.2556C144.231 58.7942 146.25 63.3328 148.269 67.8714C148.269 67.8714 148.511 66.5224 147.138 66.2766L146.008 64.6818C145.361 60.389 143.342 55.8504 141.081 52.6608L139.951 51.066C138.821 49.4712 137.69 47.8764 137.69 47.8764C136.56 46.2816 135.429 44.6868 134.299 43.0919C135.429 44.6868 136.56 46.2816 137.69 47.8764ZM111.215 37.5636C109.843 37.3177 109.843 37.3177 111.215 37.5636V37.5636ZM38.4237 56.5432C36.8099 57.6463 36.3265 60.3442 34.471 62.7963C32.6155 65.2484 32.1321 67.9463 31.407 71.9932C31.1653 73.3421 30.6818 76.0401 30.4401 77.389C31.1653 73.3421 31.6487 70.6442 32.3738 66.5973C33.3406 61.2015 35.4378 57.4004 38.9071 53.8452C40.7626 51.3931 42.3764 50.29 43.9902 49.1869L45.604 48.0838L43.9902 49.1869C42.3764 50.29 40.5209 52.7421 38.9071 53.8452C38.6654 55.1942 38.6654 55.1942 38.4237 56.5432ZM153.274 71.5527C153.032 72.9017 153.032 72.9017 153.032 72.9017C152.79 74.2506 152.79 74.2506 152.549 75.5996C152.79 74.2506 153.032 72.9017 153.274 71.5527C153.032 72.9017 153.274 71.5527 153.274 71.5527C152.385 68.6089 150.366 64.0703 148.347 59.5318C147.7 55.239 145.681 50.7004 142.048 47.265C140.918 45.6701 140.029 42.7264 137.527 40.8857C137.527 40.8857 137.527 40.8857 138.657 42.4805C140.029 42.7264 139.787 44.0753 141.159 44.3212C144.551 49.1056 146.811 52.2952 147.458 56.588C149.477 61.1266 151.496 65.6652 153.274 71.5527ZM78.7685 28.9653C80.1406 29.2111 80.1406 29.2111 78.7685 28.9653C80.1406 29.2111 80.1406 29.2111 78.7685 28.9653C80.1406 29.2111 80.1406 29.2111 80.1406 29.2111L81.5127 29.457C81.5127 29.457 81.5127 29.457 83.1265 28.3538C85.8706 28.8455 87.2427 29.0914 89.9869 29.5831L91.359 29.8289C92.7311 30.0748 92.7311 30.0748 94.1032 30.3206C95.4753 30.5665 95.4753 30.5665 96.8474 30.8123L98.2194 31.0582C100.964 31.5499 102.336 31.7957 104.838 33.6364C104.838 33.6364 105.969 35.2312 108.471 37.0719L107.099 36.826L105.727 36.5802L104.355 36.3343C106.857 38.175 106.857 38.175 106.616 39.5239C106.616 39.5239 106.374 40.8729 105.002 40.6271L103.63 40.3812L102.258 40.1354L100.885 39.8895L99.5134 39.6437L100.885 39.8895C103.388 41.7302 103.388 41.7302 103.388 41.7302C105.89 43.5708 108.635 44.0625 109.765 45.6573C112.026 48.847 114.528 50.6876 115.417 53.6314C115.417 53.6314 115.175 54.9804 116.547 55.2262C116.547 55.2262 116.547 55.2262 117.678 56.821C118.808 58.4158 119.938 60.0106 122.441 61.8513C123.571 63.4461 124.46 66.3899 126.962 68.2305C126.962 68.2305 126.962 68.2306 128.093 69.8254C128.093 69.8254 127.851 71.1743 129.223 71.4202C129.387 78.4108 130.034 82.7036 130.439 88.3453C129.956 91.0432 129.472 93.7411 128.989 96.4391C128.505 99.137 128.022 101.835 126.166 104.287C125.441 108.334 123.102 113.484 119.633 117.039C116.164 120.594 111.322 123.904 106.481 127.213C98.6538 131.38 91.31 132.848 82.8357 132.722L83.0774 131.373C83.3192 130.024 83.3192 130.024 82.1888 128.429C82.1888 128.429 82.1888 128.429 80.8167 128.184C80.8167 128.184 80.8167 128.184 79.4446 127.938L78.0725 127.692L77.8308 129.041C77.8308 129.041 77.5891 130.39 76.217 130.144L74.8449 129.898C74.8449 129.898 76.217 130.144 75.9753 131.493C75.9753 131.493 75.9753 131.493 77.1057 133.088L76.864 134.437L75.4919 134.191L74.1198 133.945L72.7477 133.699C71.3756 133.453 71.3756 133.453 70.0035 133.207L68.6315 132.962L67.2594 132.716C67.2594 132.716 67.2594 132.716 65.8873 132.47L64.5152 132.224L63.1431 131.978L61.771 131.732L60.3989 131.487L59.2685 129.892C59.2685 129.892 59.5103 128.543 58.1382 128.297C58.1382 128.297 58.1382 128.297 57.8965 129.646C57.8965 129.646 57.8965 129.646 59.0268 131.241L60.1572 132.835C60.1572 132.835 60.1572 132.835 58.7851 132.59L57.6548 130.995C57.6548 130.995 56.2827 130.749 56.5244 129.4C56.5244 129.4 55.1523 129.154 55.394 127.805L56.5244 129.4L55.1523 129.154L53.7802 128.908L52.4081 128.662C52.4081 128.662 51.036 128.417 51.2777 127.068L50.1473 125.473C50.389 124.124 49.017 123.878 49.2587 122.529C49.2587 122.529 49.5004 121.18 48.1283 120.934C48.1283 120.934 48.1283 120.934 46.9979 119.339C47.9647 113.944 48.2064 112.595 48.2064 112.595C47.9647 113.944 48.8534 116.887 49.9838 118.482C49.9838 118.482 48.6117 118.236 48.8534 116.887C47.4813 116.642 47.723 115.293 46.3509 115.047C45.2205 113.452 44.0902 111.857 42.9598 110.262L41.8294 108.667L40.9407 105.724L39.8103 104.129C40.052 102.78 38.68 102.534 38.9217 101.185C38.9217 101.185 39.1634 99.8361 37.7913 99.5903C38.033 98.2413 36.9026 96.6465 36.9026 96.6465L37.1443 95.2975L37.386 93.9486L37.6277 92.5996L37.8694 91.2506L38.1111 89.9017L38.3528 88.5527L38.5945 87.2037C35.4451 81.0703 35.2815 74.0797 37.6204 68.9297C38.1038 66.2318 38.5872 63.5338 40.4427 61.0817C40.6845 59.7328 40.6845 59.7328 40.9262 58.3838C41.1679 57.0349 41.1679 57.0348 42.7817 55.9317C43.0234 54.5828 43.0234 54.5828 44.6372 53.4797C44.8789 52.1307 44.8789 52.1307 46.4926 51.0276C46.4926 51.0276 46.4926 51.0276 46.2509 52.3765C46.0092 53.7255 44.3954 54.8286 44.1537 56.1776C43.912 57.5265 42.2982 58.6297 42.0565 59.9786C41.8148 61.3276 40.201 62.4307 39.9593 63.7797C39.7176 65.1286 39.4759 66.4776 37.8621 67.5807C37.6204 68.9297 37.3787 70.2786 37.137 71.6276L36.8953 72.9766C36.8953 72.9766 36.8953 72.9766 36.6536 74.3255L36.4119 75.6745L36.1702 77.0235C36.1702 77.0235 36.1702 77.0235 35.9285 78.3724L35.6868 79.7214C35.6868 79.7214 35.6868 79.7214 35.4451 81.0703L35.2034 82.4193L34.9617 83.7683C34.9617 83.7683 34.9617 83.7683 34.72 85.1172C33.7532 90.5131 34.4001 94.8058 36.1775 100.693C35.0471 99.0986 35.9358 102.042 37.0662 103.637C36.8245 104.986 37.9548 106.581 39.3269 106.827L40.4573 108.422L41.5877 110.016C41.1043 112.714 42.2347 114.309 43.365 115.904C41.993 115.658 41.1043 112.714 39.9739 111.12C40.8626 114.063 43.1233 117.253 45.6258 119.094L44.2537 118.848L43.1233 117.253C41.993 115.658 41.993 115.658 40.8626 114.063L41.993 115.658C41.993 115.658 41.993 115.658 41.7513 117.007C40.6209 115.412 40.8626 114.063 39.7322 112.468C38.6018 110.874 36.341 107.684 35.2107 106.089C35.4524 104.74 35.4524 104.74 34.322 103.145C34.322 103.145 34.322 103.145 34.5637 101.796C34.5637 101.796 34.5637 101.796 34.8054 100.448C33.4333 100.202 33.675 98.8527 32.3029 98.6069C33.1916 101.551 35.6941 103.391 36.5827 106.335C36.5827 106.335 36.341 107.684 37.7131 107.93C37.7131 107.93 37.4714 109.279 38.8435 109.525L39.9739 111.12C37.7131 107.93 35.4524 104.74 34.8054 100.448C33.9167 97.5038 33.2697 93.211 32.6228 88.9183C32.8645 87.5693 31.7341 85.9745 31.9758 84.6255L32.2175 83.2766L32.4592 81.9276C32.9426 79.2297 33.1843 77.8807 33.426 76.5318C34.1511 72.4849 34.6345 69.7869 36.7318 65.9859C37.6986 60.59 39.5541 58.138 41.6513 54.3369C45.604 48.0838 50.6871 43.4255 57.1422 39.013C57.1422 39.013 58.756 37.9099 57.3839 37.6641C57.3839 37.6641 57.3839 37.6641 58.756 37.9099C58.756 37.9099 58.756 37.9099 60.3698 36.8068C60.3698 36.8068 61.7419 37.0526 61.9836 35.7037C61.9836 35.7037 63.3557 35.9495 63.5974 34.6006C63.5974 34.6006 64.9695 34.8464 65.2112 33.4975C65.2112 33.4975 65.2112 33.4975 63.8391 33.2516C61.7419 37.0526 58.756 37.9099 57.1422 39.013C57.1422 39.013 55.7701 38.7672 55.5284 40.1161C50.6871 43.4255 45.604 48.0838 41.893 52.988C42.1347 51.639 43.5068 51.8848 43.7485 50.5359C43.9902 49.1869 45.3623 49.4328 45.604 48.0838L45.8457 46.7348C45.604 48.0838 43.9902 49.1869 42.3764 50.29C43.9902 49.1869 45.8457 46.7348 47.4595 45.6317L49.0733 44.5286L50.6871 43.4255L49.0733 44.5286C49.0733 44.5286 49.0733 44.5286 49.315 43.1796C50.9288 42.0765 52.7843 39.6244 54.398 38.5213C56.0118 37.4182 56.0118 37.4182 57.6256 36.3151L59.2394 35.212L60.8532 34.1089C60.8532 34.1089 60.8532 34.1089 59.4811 33.863L57.8673 34.9661L56.2535 36.0693C56.2535 36.0693 56.2535 36.0693 54.8815 35.8234L53.5094 35.5776L51.8956 36.6807C52.7843 39.6244 52.5426 40.9734 51.1705 40.7276L49.5567 41.8307L47.9429 42.9338L46.3291 44.0369C46.0874 45.3859 46.0874 45.3859 45.8457 46.7348L44.4736 46.489L46.0874 45.3859C46.0874 45.3859 46.0874 45.3859 46.3291 44.0369L46.5708 42.6879L48.1846 41.5848L49.7984 40.4817C49.7984 40.4817 49.7984 40.4817 50.0401 39.1328L51.6539 38.0296L53.2677 36.9265L54.8815 35.8234L56.4953 34.7203C56.4953 34.7203 56.4953 34.7203 57.8673 34.9661L59.2394 35.212L62.2253 34.3547L63.8391 33.2516L65.2112 33.4975L66.5833 33.7433L68.1971 32.6402L69.8109 31.5371L71.183 31.7829C71.183 31.7829 71.183 31.7829 72.555 32.0288L74.1688 30.9257C74.1688 30.9257 75.5409 31.1715 75.7826 29.8225L77.1547 30.0684C78.5268 30.3142 78.5268 30.3142 78.7685 28.9653ZM15.1055 76.0337C15.3472 74.6847 15.3472 74.6847 15.5889 73.3357C15.5889 73.3357 15.3472 74.6847 15.1055 76.0337L14.8638 77.3826L14.6221 78.7316C14.8638 77.3826 14.8638 77.3826 15.1055 76.0337C14.8638 77.3826 14.8638 77.3826 14.8638 77.3826C14.8638 77.3826 14.8638 77.3826 15.1055 76.0337ZM77.3547 155.409C75.9826 155.163 75.9826 155.163 74.6105 154.917L73.2384 154.671C71.8663 154.425 71.8663 154.425 70.4942 154.179L69.1221 153.934C59.5175 152.213 51.5267 149.389 42.8889 142.272L40.1447 141.78C40.1447 141.78 38.7727 141.534 39.0144 140.185C41.5168 142.026 45.3914 144.112 48.1356 144.604L49.5076 144.85L50.8797 145.096L49.5076 144.85L48.1356 144.604C52.0101 146.691 54.5126 148.531 58.6289 149.269C61.373 149.761 62.7451 150.006 65.4893 150.498C66.8614 150.744 66.8614 150.744 68.2335 150.99C70.4942 154.179 74.6105 154.917 77.3547 155.409Z" fill="#005BE3"/>
    </g>
    <defs>
        <clipPath id="clip0_0_88">
            <rect width="146.364" height="146.638" fill="white" transform="translate(25.8966) rotate(10.1584)"/>
        </clipPath>
    </defs>
</svg>