<svg width="39" height="36" viewBox="0 0 39 36" fill="none" xmlns="http://www.w3.org/2000/svg">
    <path d="M26.9994 10.7981H18.8633V2.75341C18.8633 2.65454 18.7815 2.57364 18.6815 2.57364H18.0906C16.8968 2.57171 15.7144 2.8032 14.6114 3.25479C13.5083 3.70638 12.5065 4.36917 11.6636 5.20501C10.8334 6.02332 10.1719 6.99332 9.7159 8.06109C9.24138 9.16855 8.99789 10.3593 9.00001 11.5621C8.99806 12.7425 9.23218 13.9116 9.6889 15.0022C10.1456 16.0929 10.8159 17.0834 11.6613 17.9169C12.4953 18.7416 13.468 19.391 14.5498 19.8427C15.6699 20.3119 16.8742 20.5526 18.0906 20.5505C19.2844 20.5525 20.4669 20.321 21.5699 19.8694C22.6729 19.4178 23.6747 18.755 24.5177 17.9192C25.3517 17.0945 26.0085 16.1327 26.4653 15.0631C26.9398 13.9556 27.1833 12.7648 27.1812 11.5621V10.9778C27.1812 10.879 27.0994 10.7981 26.9994 10.7981ZM23.4018 16.8608C22.6981 17.5512 21.8635 18.0975 20.9458 18.4684C20.0282 18.8394 19.0456 19.0277 18.0542 19.0225C16.052 19.0135 14.1703 18.2383 12.7544 16.8383C11.3295 15.4294 10.5454 13.5553 10.5454 11.5621C10.5454 9.5689 11.3295 7.69481 12.7544 6.28587C13.9953 5.05895 15.593 4.31066 17.3179 4.13988V12.3261H25.5972C25.4222 14.0407 24.6586 15.6294 23.4018 16.8608ZM28.9993 9.54868L28.9402 8.91499C28.7471 6.8454 27.8175 4.89266 26.3221 3.41855C24.8257 1.94174 22.8548 1.02777 20.7496 0.834376L20.1065 0.775951C19.9996 0.766963 19.9087 0.847859 19.9087 0.953473V9.58463C19.9087 9.6835 19.9905 9.7644 20.0905 9.7644L28.8175 9.74193C28.9243 9.74193 29.0084 9.65204 28.9993 9.54868ZM21.4496 8.24086V2.47477C22.8812 2.77104 24.195 3.47207 25.2313 4.49267C26.2699 5.51736 26.9812 6.82068 27.2767 8.22513L21.4496 8.24086Z" fill="#6C757D"/>
    <path d="M12.3184 27.1181C12.1584 26.9447 11.9884 26.8147 11.8084 26.7281C11.6351 26.6347 11.4318 26.5881 11.1984 26.5881C10.9118 26.5881 10.6684 26.6547 10.4684 26.7881C10.2751 26.9147 10.1184 27.0947 9.99844 27.3281C9.87844 27.5547 9.79177 27.8214 9.73844 28.1281C9.6851 28.4347 9.65844 28.7647 9.65844 29.1181C9.65844 29.4714 9.68177 29.8014 9.72844 30.1081C9.78177 30.4147 9.86844 30.6847 9.98844 30.9181C10.1151 31.1514 10.2818 31.3347 10.4884 31.4681C10.7018 31.6014 10.9684 31.6681 11.2884 31.6681C11.4418 31.6681 11.5884 31.6547 11.7284 31.6281C11.8684 31.6014 11.9951 31.5747 12.1084 31.5481C12.2284 31.5147 12.3251 31.4847 12.3984 31.4581C12.4784 31.4314 12.5284 31.4147 12.5484 31.4081L12.8284 32.2481L12.6984 32.2981C12.6118 32.3314 12.4884 32.3714 12.3284 32.4181C12.1751 32.4581 11.9884 32.4947 11.7684 32.5281C11.5551 32.5681 11.3184 32.5881 11.0584 32.5881C10.1651 32.5881 9.49177 32.3047 9.03844 31.7381C8.59177 31.1647 8.36844 30.3281 8.36844 29.2281C8.36844 28.7014 8.42844 28.2214 8.54844 27.7881C8.66844 27.3481 8.84844 26.9714 9.08844 26.6581C9.3351 26.3447 9.64177 26.1014 10.0084 25.9281C10.3818 25.7547 10.8184 25.6681 11.3184 25.6681C11.7184 25.6681 12.0451 25.7414 12.2984 25.8881C12.5584 26.0347 12.7684 26.2014 12.9284 26.3881L12.3184 27.1181ZM14.9228 28.1881C15.1161 27.9347 15.3461 27.7514 15.6128 27.6381C15.8861 27.5247 16.1728 27.4681 16.4728 27.4681C16.9861 27.4681 17.3561 27.6247 17.5828 27.9381C17.8161 28.2447 17.9328 28.6614 17.9328 29.1881V32.5281H16.7928V29.2681C16.7928 28.9881 16.7428 28.7681 16.6428 28.6081C16.5428 28.4414 16.3728 28.3581 16.1328 28.3581C15.9928 28.3581 15.8495 28.3947 15.7028 28.4681C15.5628 28.5414 15.4328 28.6481 15.3128 28.7881C15.1995 28.9214 15.1061 29.0814 15.0328 29.2681C14.9595 29.4547 14.9228 29.6614 14.9228 29.8881V32.5281H13.7828V25.4781L14.9228 25.2781V28.1881ZM23.2032 30.1181C23.2032 30.5181 23.2265 30.8547 23.2732 31.1281C23.3265 31.3947 23.3832 31.6114 23.4432 31.7781C23.5165 31.9781 23.5965 32.1347 23.6832 32.2481L22.7932 32.6081C22.7065 32.5214 22.6265 32.4181 22.5532 32.2981C22.4932 32.1914 22.4365 32.0647 22.3832 31.9181C22.3299 31.7647 22.2965 31.5847 22.2832 31.3781C22.1699 31.7781 21.9865 32.0814 21.7332 32.2881C21.4865 32.4881 21.1499 32.5881 20.7232 32.5881C20.4099 32.5881 20.1365 32.5314 19.9032 32.4181C19.6765 32.2981 19.4865 32.1314 19.3332 31.9181C19.1799 31.6981 19.0665 31.4347 18.9932 31.1281C18.9199 30.8214 18.8832 30.4814 18.8832 30.1081C18.8832 29.7281 18.9399 29.3781 19.0532 29.0581C19.1732 28.7314 19.3365 28.4514 19.5432 28.2181C19.7565 27.9847 20.0099 27.8014 20.3032 27.6681C20.5965 27.5347 20.9199 27.4681 21.2732 27.4681C21.4732 27.4681 21.6799 27.4847 21.8932 27.5181C22.1132 27.5447 22.3165 27.5747 22.5032 27.6081C22.6899 27.6414 22.8465 27.6747 22.9732 27.7081C23.1065 27.7347 23.1832 27.7514 23.2032 27.7581V30.1181ZM20.9132 31.7881C21.0799 31.7881 21.2332 31.7314 21.3732 31.6181C21.5132 31.5047 21.6332 31.3581 21.7332 31.1781C21.8399 30.9914 21.9199 30.7814 21.9732 30.5481C22.0332 30.3081 22.0632 30.0647 22.0632 29.8181V28.3781C21.9965 28.3581 21.8965 28.3347 21.7632 28.3081C21.6299 28.2814 21.5099 28.2681 21.4032 28.2681C21.1499 28.2681 20.9399 28.3114 20.7732 28.3981C20.6132 28.4847 20.4832 28.6047 20.3832 28.7581C20.2832 28.9114 20.2132 29.0947 20.1732 29.3081C20.1332 29.5214 20.1132 29.7547 20.1132 30.0081C20.1132 30.2414 20.1199 30.4647 20.1332 30.6781C20.1465 30.8914 20.1799 31.0814 20.2332 31.2481C20.2932 31.4147 20.3765 31.5481 20.4832 31.6481C20.5899 31.7414 20.7332 31.7881 20.9132 31.7881ZM26.5792 28.5881C26.4592 28.5881 26.3392 28.6181 26.2192 28.6781C26.0992 28.7381 25.9926 28.8214 25.8992 28.9281C25.8059 29.0281 25.7292 29.1514 25.6692 29.2981C25.6092 29.4447 25.5792 29.6081 25.5792 29.7881V32.5281H24.4392V30.0081C24.4392 29.6081 24.4126 29.2747 24.3592 29.0081C24.3059 28.7347 24.2492 28.5147 24.1892 28.3481C24.1159 28.1547 24.0359 27.9981 23.9492 27.8781L24.8492 27.5181C24.9092 27.5914 24.9726 27.6814 25.0392 27.7881C25.0926 27.8814 25.1459 27.9914 25.1992 28.1181C25.2526 28.2447 25.2959 28.3947 25.3292 28.5681C25.4626 28.1814 25.6559 27.9047 25.9092 27.7381C26.1626 27.5647 26.4492 27.4781 26.7692 27.4781C26.9226 27.4781 27.0659 27.4981 27.1992 27.5381C27.3326 27.5714 27.3959 27.5881 27.3892 27.5881L27.0692 28.6981C27.0759 28.6981 27.0359 28.6814 26.9492 28.6481C26.8692 28.6081 26.7459 28.5881 26.5792 28.5881ZM27.5883 27.5481H28.4883L28.6883 26.3781L29.6283 26.1681V27.5481H30.8583L30.7183 28.3581H29.6283V31.3181C29.6283 31.4914 29.6749 31.6047 29.7683 31.6581C29.8616 31.7047 29.9649 31.7281 30.0783 31.7281C30.1716 31.7281 30.2649 31.7214 30.3583 31.7081C30.4516 31.6947 30.5349 31.6781 30.6083 31.6581C30.6949 31.6381 30.7783 31.6147 30.8583 31.5881L31.0483 32.3381L30.9583 32.3681C30.8983 32.3947 30.8083 32.4247 30.6883 32.4581C30.5749 32.4847 30.4383 32.5081 30.2783 32.5281C30.1249 32.5547 29.9549 32.5681 29.7683 32.5681C29.5816 32.5681 29.4083 32.5481 29.2483 32.5081C29.0949 32.4681 28.9616 32.4047 28.8483 32.3181C28.7349 32.2247 28.6449 32.1081 28.5783 31.9681C28.5183 31.8281 28.4883 31.6547 28.4883 31.4481V28.3581H27.5883V27.5481Z" fill="#6C757D"/>
</svg>
