<svg width="28" height="36" viewBox="0 0 28 36" fill="none" xmlns="http://www.w3.org/2000/svg">
    <path d="M14 0.775269L13.4235 1.31001L3 11.4288L4.1538 12.5489L5.18012 11.5503V20.5506H12.3964V12.7668H15.6036V20.5506H22.8199V11.5503L23.847 12.5481L25 11.4288L14.5765 1.31001L14 0.775269ZM14 2.98895L21.2163 9.99429V18.9938H17.2072V11.2101H10.7928V18.9938H6.78373V9.99351L14 2.98895Z" fill="#6C757D"/>
    <path d="M4.68 29.4481H1.89V32.5281H0.7V25.7581H1.89V28.5781H4.68V25.7581H5.87V32.5281H4.68V29.4481ZM9.13391 27.4281C9.90057 27.4281 10.4572 27.6547 10.8039 28.1081C11.1506 28.5614 11.3239 29.1847 11.3239 29.9781C11.3239 30.3514 11.2772 30.7014 11.1839 31.0281C11.0906 31.3481 10.9472 31.6281 10.7539 31.8681C10.5672 32.1014 10.3306 32.2881 10.0439 32.4281C9.75724 32.5614 9.42391 32.6281 9.04391 32.6281C8.66391 32.6281 8.33391 32.5714 8.05391 32.4581C7.78057 32.3381 7.55391 32.1681 7.37391 31.9481C7.19391 31.7281 7.06057 31.4614 6.97391 31.1481C6.89391 30.8347 6.85391 30.4814 6.85391 30.0881C6.85391 29.7081 6.90057 29.3581 6.99391 29.0381C7.08724 28.7114 7.22724 28.4314 7.41391 28.1981C7.60724 27.9581 7.84724 27.7714 8.13391 27.6381C8.42057 27.4981 8.75391 27.4281 9.13391 27.4281ZM9.03391 28.2681C8.84057 28.2681 8.68057 28.3114 8.55391 28.3981C8.43391 28.4847 8.33724 28.6081 8.26391 28.7681C8.19724 28.9214 8.15057 29.1047 8.12391 29.3181C8.09724 29.5247 8.08391 29.7481 8.08391 29.9881C8.08391 30.2347 8.09724 30.4681 8.12391 30.6881C8.15724 30.9081 8.21391 31.1014 8.29391 31.2681C8.37391 31.4281 8.48057 31.5547 8.61391 31.6481C8.75391 31.7414 8.93057 31.7881 9.14391 31.7881C9.33724 31.7881 9.49391 31.7447 9.61391 31.6581C9.74057 31.5714 9.83724 31.4514 9.90391 31.2981C9.97724 31.1381 10.0272 30.9547 10.0539 30.7481C10.0806 30.5414 10.0939 30.3181 10.0939 30.0781C10.0939 29.8314 10.0772 29.5981 10.0439 29.3781C10.0172 29.1581 9.96391 28.9647 9.88391 28.7981C9.80391 28.6314 9.69391 28.5014 9.55391 28.4081C9.42057 28.3147 9.24724 28.2681 9.03391 28.2681ZM18.0299 32.5281V29.2681C18.0299 28.9881 17.9866 28.7681 17.8999 28.6081C17.8133 28.4414 17.6633 28.3581 17.4499 28.3581C17.3233 28.3581 17.1933 28.3947 17.0599 28.4681C16.9333 28.5347 16.8166 28.6347 16.7099 28.7681C16.6033 28.9014 16.5166 29.0614 16.4499 29.2481C16.3833 29.4347 16.3499 29.6414 16.3499 29.8681V32.5281H15.2199V29.2681C15.2199 28.9881 15.1766 28.7681 15.0899 28.6081C15.0033 28.4414 14.8533 28.3581 14.6399 28.3581C14.5066 28.3581 14.3733 28.3981 14.2399 28.4781C14.1133 28.5514 13.9966 28.6614 13.8899 28.8081C13.7899 28.9547 13.7066 29.1347 13.6399 29.3481C13.5799 29.5547 13.5499 29.7881 13.5499 30.0481V32.5281H12.4099V30.0081C12.4099 29.6081 12.3833 29.2747 12.3299 29.0081C12.2766 28.7347 12.2199 28.5147 12.1599 28.3481C12.0866 28.1547 12.0066 27.9981 11.9199 27.8781L12.8199 27.5181C12.8866 27.5914 12.9533 27.6814 13.0199 27.7881C13.0733 27.8814 13.1266 27.9981 13.1799 28.1381C13.2333 28.2714 13.2766 28.4247 13.3099 28.5981C13.4766 28.1981 13.7099 27.9114 14.0099 27.7381C14.3166 27.5581 14.6399 27.4681 14.9799 27.4681C15.3199 27.4681 15.5833 27.5547 15.7699 27.7281C15.9633 27.9014 16.1066 28.1247 16.1999 28.3981C16.3799 28.0647 16.6099 27.8281 16.8899 27.6881C17.1766 27.5414 17.4766 27.4681 17.7899 27.4681C18.0499 27.4681 18.2666 27.5114 18.4399 27.5981C18.6199 27.6781 18.7599 27.7947 18.8599 27.9481C18.9666 28.0947 19.0433 28.2747 19.0899 28.4881C19.1366 28.6947 19.1599 28.9281 19.1599 29.1881V32.5281H18.0299ZM20.1059 30.1581C20.1059 29.7114 20.1659 29.3181 20.2859 28.9781C20.4125 28.6381 20.5825 28.3547 20.7959 28.1281C21.0159 27.8947 21.2725 27.7214 21.5659 27.6081C21.8592 27.4881 22.1759 27.4281 22.5159 27.4281C22.8159 27.4281 23.0692 27.4647 23.2759 27.5381C23.4892 27.6114 23.6625 27.7114 23.7959 27.8381C23.9292 27.9647 24.0259 28.1147 24.0859 28.2881C24.1525 28.4614 24.1859 28.6481 24.1859 28.8481C24.1859 29.0881 24.1192 29.3181 23.9859 29.5381C23.8525 29.7514 23.6592 29.9414 23.4059 30.1081C23.1592 30.2681 22.8592 30.3981 22.5059 30.4981C22.1525 30.5914 21.7559 30.6414 21.3159 30.6481C21.3359 30.8014 21.3659 30.9481 21.4059 31.0881C21.4525 31.2214 21.5159 31.3414 21.5959 31.4481C21.6825 31.5481 21.7925 31.6281 21.9259 31.6881C22.0592 31.7481 22.2259 31.7781 22.4259 31.7781C22.5725 31.7781 22.7292 31.7614 22.8959 31.7281C23.0625 31.6947 23.2159 31.6547 23.3559 31.6081C23.5225 31.5547 23.6859 31.4947 23.8459 31.4281L24.1459 32.1381C23.9725 32.2247 23.7859 32.3014 23.5859 32.3681C23.4125 32.4281 23.2125 32.4814 22.9859 32.5281C22.7592 32.5747 22.5192 32.5981 22.2659 32.5981C21.8792 32.5981 21.5492 32.5414 21.2759 32.4281C21.0025 32.3081 20.7792 32.1414 20.6059 31.9281C20.4325 31.7147 20.3059 31.4581 20.2259 31.1581C20.1459 30.8581 20.1059 30.5247 20.1059 30.1581ZM22.4259 28.2081C22.2059 28.2081 22.0225 28.2614 21.8759 28.3681C21.7359 28.4681 21.6225 28.6014 21.5359 28.7681C21.4492 28.9281 21.3859 29.1114 21.3459 29.3181C21.3125 29.5181 21.2925 29.7214 21.2859 29.9281C21.6059 29.9147 21.8759 29.8747 22.0959 29.8081C22.3225 29.7347 22.5059 29.6481 22.6459 29.5481C22.7859 29.4414 22.8859 29.3281 22.9459 29.2081C23.0125 29.0881 23.0459 28.9681 23.0459 28.8481C23.0459 28.6547 22.9892 28.5014 22.8759 28.3881C22.7625 28.2681 22.6125 28.2081 22.4259 28.2081Z" fill="#6C757D"/>
</svg>
