<svg width="33" height="36" viewBox="0 0 33 36" fill="none" xmlns="http://www.w3.org/2000/svg">
    <path d="M26.7708 18.5281H7.0625V0.999988C7.0625 0.876392 6.95938 0.775269 6.83333 0.775269H5.22917C5.10312 0.775269 5 0.876392 5 0.999988V20.3258C5 20.4494 5.10312 20.5506 5.22917 20.5506H26.7708C26.8969 20.5506 27 20.4494 27 20.3258V18.7528C27 18.6292 26.8969 18.5281 26.7708 18.5281ZM10.0932 14.1938C10.182 14.2809 10.3253 14.2809 10.4169 14.1938L14.3786 10.3286L18.0339 13.9354C18.1227 14.0225 18.2687 14.0225 18.3576 13.9354L26.2466 6.20224C26.3354 6.11516 26.3354 5.9719 26.2466 5.88482L25.1122 4.77246C25.0692 4.73064 25.011 4.70718 24.9504 4.70718C24.8898 4.70718 24.8316 4.73064 24.7885 4.77246L18.2 11.2303L14.5505 7.6292C14.5074 7.58738 14.4493 7.56392 14.3887 7.56392C14.3281 7.56392 14.2699 7.58738 14.2268 7.6292L8.96172 12.7612C8.91907 12.8035 8.89515 12.8605 8.89515 12.9199C8.89515 12.9794 8.91907 13.0364 8.96172 13.0786L10.0932 14.1938Z" fill="#6C757D"/>
    <path d="M5.95605 32.5281H5.11605L3.98605 29.9581C3.95272 29.8847 3.90939 29.7847 3.85605 29.6581C3.80939 29.5314 3.75605 29.3914 3.69605 29.2381C3.63605 29.0847 3.57272 28.9247 3.50605 28.7581C3.43939 28.5847 3.37605 28.4114 3.31605 28.2381C3.31605 28.4114 3.31272 28.5847 3.30605 28.7581C3.30605 28.9247 3.30272 29.0847 3.29605 29.2381C3.28939 29.3847 3.28272 29.5181 3.27605 29.6381C3.27605 29.7514 3.27605 29.8414 3.27605 29.9081L3.17605 32.5281H2.05605L2.45605 25.7381H3.38605L5.09605 29.9781C5.15605 30.1314 5.22272 30.2981 5.29605 30.4781C5.37605 30.6581 5.44939 30.8347 5.51605 31.0081C5.58272 30.8347 5.65272 30.6614 5.72605 30.4881C5.79939 30.3081 5.86939 30.1381 5.93605 29.9781L7.65605 25.7381H8.56605L8.96606 32.5281H7.85606L7.74605 29.9381C7.73939 29.7714 7.72939 29.5347 7.71606 29.2281C7.70939 28.9147 7.70272 28.5981 7.69605 28.2781C7.63605 28.4447 7.57272 28.6114 7.50605 28.7781C7.44605 28.9447 7.38939 29.1014 7.33605 29.2481C7.28272 29.3947 7.23272 29.5281 7.18605 29.6481C7.13939 29.7681 7.10272 29.8614 7.07606 29.9281L5.95605 32.5281ZM14.1729 30.1181C14.1729 30.5181 14.1963 30.8547 14.2429 31.1281C14.2963 31.3947 14.3529 31.6114 14.4129 31.7781C14.4863 31.9781 14.5663 32.1347 14.6529 32.2481L13.7629 32.6081C13.6763 32.5214 13.5963 32.4181 13.5229 32.2981C13.4629 32.1914 13.4063 32.0647 13.3529 31.9181C13.2996 31.7647 13.2663 31.5847 13.2529 31.3781C13.1396 31.7781 12.9563 32.0814 12.7029 32.2881C12.4563 32.4881 12.1196 32.5881 11.6929 32.5881C11.3796 32.5881 11.1063 32.5314 10.8729 32.4181C10.6463 32.2981 10.4563 32.1314 10.3029 31.9181C10.1496 31.6981 10.0363 31.4347 9.96293 31.1281C9.8896 30.8214 9.85293 30.4814 9.85293 30.1081C9.85293 29.7281 9.9096 29.3781 10.0229 29.0581C10.1429 28.7314 10.3063 28.4514 10.5129 28.2181C10.7263 27.9847 10.9796 27.8014 11.2729 27.6681C11.5663 27.5347 11.8896 27.4681 12.2429 27.4681C12.4429 27.4681 12.6496 27.4847 12.8629 27.5181C13.0829 27.5447 13.2863 27.5747 13.4729 27.6081C13.6596 27.6414 13.8163 27.6747 13.9429 27.7081C14.0763 27.7347 14.1529 27.7514 14.1729 27.7581V30.1181ZM11.8829 31.7881C12.0496 31.7881 12.2029 31.7314 12.3429 31.6181C12.4829 31.5047 12.6029 31.3581 12.7029 31.1781C12.8096 30.9914 12.8896 30.7814 12.9429 30.5481C13.0029 30.3081 13.0329 30.0647 13.0329 29.8181V28.3781C12.9663 28.3581 12.8663 28.3347 12.7329 28.3081C12.5996 28.2814 12.4796 28.2681 12.3729 28.2681C12.1196 28.2681 11.9096 28.3114 11.7429 28.3981C11.5829 28.4847 11.4529 28.6047 11.3529 28.7581C11.2529 28.9114 11.1829 29.0947 11.1429 29.3081C11.1029 29.5214 11.0829 29.7547 11.0829 30.0081C11.0829 30.2414 11.0896 30.4647 11.1029 30.6781C11.1163 30.8914 11.1496 31.0814 11.2029 31.2481C11.2629 31.4147 11.3463 31.5481 11.4529 31.6481C11.5596 31.7414 11.7029 31.7881 11.8829 31.7881ZM17.5489 28.5881C17.4289 28.5881 17.3089 28.6181 17.1889 28.6781C17.0689 28.7381 16.9623 28.8214 16.8689 28.9281C16.7756 29.0281 16.6989 29.1514 16.6389 29.2981C16.5789 29.4447 16.5489 29.6081 16.5489 29.7881V32.5281H15.4089V30.0081C15.4089 29.6081 15.3823 29.2747 15.3289 29.0081C15.2756 28.7347 15.2189 28.5147 15.1589 28.3481C15.0856 28.1547 15.0056 27.9981 14.9189 27.8781L15.8189 27.5181C15.8789 27.5914 15.9423 27.6814 16.0089 27.7881C16.0623 27.8814 16.1156 27.9914 16.1689 28.1181C16.2223 28.2447 16.2656 28.3947 16.2989 28.5681C16.4323 28.1814 16.6256 27.9047 16.8789 27.7381C17.1323 27.5647 17.4189 27.4781 17.7389 27.4781C17.8923 27.4781 18.0356 27.4981 18.1689 27.5381C18.3023 27.5714 18.3656 27.5881 18.3589 27.5881L18.0389 28.6981C18.0456 28.6981 18.0056 28.6814 17.9189 28.6481C17.8389 28.6081 17.7156 28.5881 17.5489 28.5881ZM20.1504 25.2781V28.1281C20.2037 28.0614 20.2704 27.9914 20.3504 27.9181C20.437 27.8381 20.5437 27.7647 20.6704 27.6981C20.797 27.6314 20.9437 27.5747 21.1104 27.5281C21.277 27.4814 21.4704 27.4581 21.6904 27.4581C21.897 27.4581 22.0904 27.4881 22.2704 27.5481C22.4504 27.6081 22.6037 27.6947 22.7304 27.8081C22.8637 27.9214 22.967 28.0614 23.0404 28.2281C23.1204 28.3881 23.1604 28.5714 23.1604 28.7781C23.1604 29.0781 23.097 29.3247 22.9704 29.5181C22.8504 29.7114 22.7137 29.8647 22.5604 29.9781C22.387 30.1114 22.187 30.2181 21.9604 30.2981L23.3604 32.5281H22.0704L20.6304 30.0381L20.6204 29.9381C20.6737 29.9247 20.7737 29.8947 20.9204 29.8481C21.0737 29.8014 21.2304 29.7347 21.3904 29.6481C21.5504 29.5614 21.6904 29.4547 21.8104 29.3281C21.937 29.1947 22.0004 29.0381 22.0004 28.8581C22.0004 28.6647 21.9437 28.5181 21.8304 28.4181C21.717 28.3181 21.567 28.2681 21.3804 28.2681C21.127 28.2681 20.9204 28.3181 20.7604 28.4181C20.6004 28.5181 20.4737 28.6314 20.3804 28.7581C20.2937 28.8847 20.2337 29.0047 20.2004 29.1181C20.167 29.2314 20.1504 29.2981 20.1504 29.3181V32.5281H19.0104V25.4781L20.1504 25.2781ZM23.6518 30.1581C23.6518 29.7114 23.7118 29.3181 23.8318 28.9781C23.9584 28.6381 24.1284 28.3547 24.3418 28.1281C24.5618 27.8947 24.8184 27.7214 25.1118 27.6081C25.4051 27.4881 25.7218 27.4281 26.0618 27.4281C26.3618 27.4281 26.6151 27.4647 26.8218 27.5381C27.0351 27.6114 27.2084 27.7114 27.3418 27.8381C27.4751 27.9647 27.5718 28.1147 27.6318 28.2881C27.6984 28.4614 27.7318 28.6481 27.7318 28.8481C27.7318 29.0881 27.6651 29.3181 27.5318 29.5381C27.3984 29.7514 27.2051 29.9414 26.9518 30.1081C26.7051 30.2681 26.4051 30.3981 26.0518 30.4981C25.6984 30.5914 25.3018 30.6414 24.8618 30.6481C24.8818 30.8014 24.9118 30.9481 24.9518 31.0881C24.9984 31.2214 25.0618 31.3414 25.1418 31.4481C25.2284 31.5481 25.3384 31.6281 25.4718 31.6881C25.6051 31.7481 25.7718 31.7781 25.9718 31.7781C26.1184 31.7781 26.2751 31.7614 26.4418 31.7281C26.6084 31.6947 26.7618 31.6547 26.9018 31.6081C27.0684 31.5547 27.2318 31.4947 27.3918 31.4281L27.6918 32.1381C27.5184 32.2247 27.3318 32.3014 27.1318 32.3681C26.9584 32.4281 26.7584 32.4814 26.5318 32.5281C26.3051 32.5747 26.0651 32.5981 25.8118 32.5981C25.4251 32.5981 25.0951 32.5414 24.8218 32.4281C24.5484 32.3081 24.3251 32.1414 24.1518 31.9281C23.9784 31.7147 23.8518 31.4581 23.7718 31.1581C23.6918 30.8581 23.6518 30.5247 23.6518 30.1581ZM25.9718 28.2081C25.7518 28.2081 25.5684 28.2614 25.4218 28.3681C25.2818 28.4681 25.1684 28.6014 25.0818 28.7681C24.9951 28.9281 24.9318 29.1114 24.8918 29.3181C24.8584 29.5181 24.8384 29.7214 24.8318 29.9281C25.1518 29.9147 25.4218 29.8747 25.6418 29.8081C25.8684 29.7347 26.0518 29.6481 26.1918 29.5481C26.3318 29.4414 26.4318 29.3281 26.4918 29.2081C26.5584 29.0881 26.5918 28.9681 26.5918 28.8481C26.5918 28.6547 26.5351 28.5014 26.4218 28.3881C26.3084 28.2681 26.1584 28.2081 25.9718 28.2081ZM28.0307 27.5481H28.9307L29.1307 26.3781L30.0707 26.1681V27.5481H31.3007L31.1607 28.3581H30.0707V31.3181C30.0707 31.4914 30.1173 31.6047 30.2107 31.6581C30.304 31.7047 30.4073 31.7281 30.5207 31.7281C30.614 31.7281 30.7073 31.7214 30.8007 31.7081C30.894 31.6947 30.9773 31.6781 31.0507 31.6581C31.1373 31.6381 31.2207 31.6147 31.3007 31.5881L31.4907 32.3381L31.4007 32.3681C31.3407 32.3947 31.2507 32.4247 31.1307 32.4581C31.0173 32.4847 30.8807 32.5081 30.7207 32.5281C30.5673 32.5547 30.3973 32.5681 30.2107 32.5681C30.024 32.5681 29.8507 32.5481 29.6907 32.5081C29.5373 32.4681 29.404 32.4047 29.2907 32.3181C29.1773 32.2247 29.0873 32.1081 29.0207 31.9681C28.9607 31.8281 28.9307 31.6547 28.9307 31.4481V28.3581H28.0307V27.5481Z" fill="#6C757D"/>
</svg>
