<svg width="39" height="36" viewBox="0 0 39 36" fill="none" xmlns="http://www.w3.org/2000/svg">
    <path d="M28.5507 5.8385H24.9855C25.314 5.3274 25.5072 4.72077 25.5072 4.07115C25.5072 2.25364 24.0121 0.775269 22.1739 0.775269C21.1739 0.775269 20.2729 1.21472 19.6618 1.90733C19.0507 1.21472 18.1498 0.775269 17.1498 0.775269C15.3116 0.775269 13.8164 2.25364 13.8164 4.07115C13.8164 4.72077 14.0072 5.3274 14.3382 5.8385H10.7729C10.3454 5.8385 10 6.18003 10 6.60277V11.3794C10 11.4845 10.087 11.5705 10.1932 11.5705H11.1594V19.7863C11.1594 20.209 11.5048 20.5506 11.9324 20.5506H27.3913C27.8188 20.5506 28.1642 20.209 28.1642 19.7863V11.5705H29.1304C29.2367 11.5705 29.3237 11.4845 29.3237 11.3794V6.60277C29.3237 6.18003 28.9783 5.8385 28.5507 5.8385ZM20.4831 4.07115C20.4831 3.14926 21.2415 2.39933 22.1739 2.39933C23.1063 2.39933 23.8647 3.14926 23.8647 4.07115C23.8647 4.99304 23.1063 5.74297 22.1739 5.74297H20.4831V4.07115ZM17.1498 2.39933C18.0821 2.39933 18.8406 3.14926 18.8406 4.07115V5.74297H17.1498C16.2174 5.74297 15.4589 4.99304 15.4589 4.07115C15.4589 3.14926 16.2174 2.39933 17.1498 2.39933ZM11.6425 9.94641V7.46256H18.8406V9.94641H11.6425ZM12.8019 11.5705H18.8406V18.9265H12.8019V11.5705ZM26.5217 18.9265H20.4831V11.5705H26.5217V18.9265ZM27.6812 9.94641H20.4831V7.46256H27.6812V9.94641Z" fill="#6C757D"/>
    <path d="M10.9862 25.6681C11.4862 25.6681 11.9128 25.7481 12.2662 25.9081C12.6195 26.0681 12.9095 26.2947 13.1362 26.5881C13.3695 26.8814 13.5395 27.2414 13.6462 27.6681C13.7528 28.0881 13.8062 28.5614 13.8062 29.0881C13.8062 29.6081 13.7462 30.0847 13.6262 30.5181C13.5128 30.9447 13.3328 31.3114 13.0862 31.6181C12.8462 31.9247 12.5395 32.1647 12.1662 32.3381C11.7995 32.5047 11.3628 32.5881 10.8562 32.5881C10.3562 32.5881 9.92617 32.5147 9.56617 32.3681C9.21284 32.2147 8.91951 31.9947 8.68617 31.7081C8.45951 31.4147 8.29284 31.0614 8.18617 30.6481C8.07951 30.2347 8.02617 29.7614 8.02617 29.2281C8.02617 28.7081 8.08284 28.2314 8.19617 27.7981C8.31617 27.3581 8.49617 26.9814 8.73617 26.6681C8.98284 26.3481 9.29284 26.1014 9.66617 25.9281C10.0395 25.7547 10.4795 25.6681 10.9862 25.6681ZM10.8462 26.5881C10.5528 26.5881 10.3095 26.6547 10.1162 26.7881C9.92284 26.9147 9.76617 27.0914 9.64617 27.3181C9.52617 27.5447 9.43951 27.8114 9.38617 28.1181C9.33951 28.4247 9.31617 28.7581 9.31617 29.1181C9.31617 29.4581 9.33951 29.7814 9.38617 30.0881C9.43284 30.3947 9.51617 30.6647 9.63617 30.8981C9.76284 31.1314 9.93284 31.3181 10.1462 31.4581C10.3662 31.5981 10.6495 31.6681 10.9962 31.6681C11.2828 31.6681 11.5228 31.6047 11.7162 31.4781C11.9162 31.3514 12.0762 31.1781 12.1962 30.9581C12.3162 30.7381 12.3995 30.4781 12.4462 30.1781C12.4995 29.8714 12.5262 29.5414 12.5262 29.1881C12.5262 28.8481 12.5028 28.5214 12.4562 28.2081C12.4095 27.8947 12.3228 27.6181 12.1962 27.3781C12.0762 27.1381 11.9062 26.9481 11.6862 26.8081C11.4728 26.6614 11.1928 26.5881 10.8462 26.5881ZM17.1359 28.5881C17.0159 28.5881 16.8959 28.6181 16.7759 28.6781C16.6559 28.7381 16.5492 28.8214 16.4559 28.9281C16.3625 29.0281 16.2859 29.1514 16.2259 29.2981C16.1659 29.4447 16.1359 29.6081 16.1359 29.7881V32.5281H14.9959V30.0081C14.9959 29.6081 14.9692 29.2747 14.9159 29.0081C14.8625 28.7347 14.8059 28.5147 14.7459 28.3481C14.6725 28.1547 14.5925 27.9981 14.5059 27.8781L15.4059 27.5181C15.4659 27.5914 15.5292 27.6814 15.5959 27.7881C15.6492 27.8814 15.7025 27.9914 15.7559 28.1181C15.8092 28.2447 15.8525 28.3947 15.8859 28.5681C16.0192 28.1814 16.2125 27.9047 16.4659 27.7381C16.7192 27.5647 17.0059 27.4781 17.3259 27.4781C17.4792 27.4781 17.6225 27.4981 17.7559 27.5381C17.8892 27.5714 17.9525 27.5881 17.9459 27.5881L17.6259 28.6981C17.6325 28.6981 17.5925 28.6814 17.5059 28.6481C17.4259 28.6081 17.3025 28.5881 17.1359 28.5881ZM21.9045 32.6081C21.8912 32.6014 21.8612 32.5714 21.8145 32.5181C21.7679 32.4581 21.7145 32.3781 21.6545 32.2781C21.6012 32.1781 21.5479 32.0547 21.4945 31.9081C21.4412 31.7547 21.4079 31.5781 21.3945 31.3781C21.2812 31.7781 21.0979 32.0814 20.8445 32.2881C20.5979 32.4881 20.2612 32.5881 19.8345 32.5881C19.5212 32.5881 19.2479 32.5314 19.0145 32.4181C18.7879 32.2981 18.5979 32.1314 18.4445 31.9181C18.2912 31.6981 18.1779 31.4347 18.1045 31.1281C18.0312 30.8214 17.9945 30.4814 17.9945 30.1081C17.9945 29.7281 18.0512 29.3781 18.1645 29.0581C18.2845 28.7314 18.4479 28.4514 18.6545 28.2181C18.8679 27.9847 19.1212 27.8014 19.4145 27.6681C19.7079 27.5347 20.0312 27.4681 20.3845 27.4681C20.5045 27.4681 20.6312 27.4747 20.7645 27.4881C20.9045 27.5014 21.0412 27.5181 21.1745 27.5381V25.2781L22.3145 25.4781V30.1181C22.3145 30.5181 22.3379 30.8514 22.3845 31.1181C22.4312 31.3781 22.4845 31.5914 22.5445 31.7581C22.6045 31.9181 22.6579 32.0347 22.7045 32.1081C22.7579 32.1814 22.7879 32.2281 22.7945 32.2481L21.9045 32.6081ZM20.0245 31.7781C20.1912 31.7781 20.3445 31.7214 20.4845 31.6081C20.6245 31.4947 20.7445 31.3481 20.8445 31.1681C20.9512 30.9814 21.0312 30.7714 21.0845 30.5381C21.1445 30.3047 21.1745 30.0647 21.1745 29.8181V28.3781C21.1079 28.3581 21.0079 28.3347 20.8745 28.3081C20.7412 28.2814 20.6212 28.2681 20.5145 28.2681C20.2612 28.2681 20.0512 28.3114 19.8845 28.3981C19.7245 28.4847 19.5945 28.6047 19.4945 28.7581C19.3945 28.9114 19.3245 29.0947 19.2845 29.3081C19.2445 29.5214 19.2245 29.7547 19.2245 30.0081C19.2245 30.2414 19.2312 30.4647 19.2445 30.6781C19.2579 30.8914 19.2912 31.0814 19.3445 31.2481C19.4045 31.4081 19.4879 31.5381 19.5945 31.6381C19.7012 31.7314 19.8445 31.7781 20.0245 31.7781ZM23.3559 30.1581C23.3559 29.7114 23.4159 29.3181 23.5359 28.9781C23.6625 28.6381 23.8325 28.3547 24.0459 28.1281C24.2659 27.8947 24.5225 27.7214 24.8159 27.6081C25.1092 27.4881 25.4259 27.4281 25.7659 27.4281C26.0659 27.4281 26.3192 27.4647 26.5259 27.5381C26.7392 27.6114 26.9125 27.7114 27.0459 27.8381C27.1792 27.9647 27.2759 28.1147 27.3359 28.2881C27.4025 28.4614 27.4359 28.6481 27.4359 28.8481C27.4359 29.0881 27.3692 29.3181 27.2359 29.5381C27.1025 29.7514 26.9092 29.9414 26.6559 30.1081C26.4092 30.2681 26.1092 30.3981 25.7559 30.4981C25.4025 30.5914 25.0059 30.6414 24.5659 30.6481C24.5859 30.8014 24.6159 30.9481 24.6559 31.0881C24.7025 31.2214 24.7659 31.3414 24.8459 31.4481C24.9325 31.5481 25.0425 31.6281 25.1759 31.6881C25.3092 31.7481 25.4759 31.7781 25.6759 31.7781C25.8225 31.7781 25.9792 31.7614 26.1459 31.7281C26.3125 31.6947 26.4659 31.6547 26.6059 31.6081C26.7725 31.5547 26.9359 31.4947 27.0959 31.4281L27.3959 32.1381C27.2225 32.2247 27.0359 32.3014 26.8359 32.3681C26.6625 32.4281 26.4625 32.4814 26.2359 32.5281C26.0092 32.5747 25.7692 32.5981 25.5159 32.5981C25.1292 32.5981 24.7992 32.5414 24.5259 32.4281C24.2525 32.3081 24.0292 32.1414 23.8559 31.9281C23.6825 31.7147 23.5559 31.4581 23.4759 31.1581C23.3959 30.8581 23.3559 30.5247 23.3559 30.1581ZM25.6759 28.2081C25.4559 28.2081 25.2725 28.2614 25.1259 28.3681C24.9859 28.4681 24.8725 28.6014 24.7859 28.7681C24.6992 28.9281 24.6359 29.1114 24.5959 29.3181C24.5625 29.5181 24.5425 29.7214 24.5359 29.9281C24.8559 29.9147 25.1259 29.8747 25.3459 29.8081C25.5725 29.7347 25.7559 29.6481 25.8959 29.5481C26.0359 29.4414 26.1359 29.3281 26.1959 29.2081C26.2625 29.0881 26.2959 28.9681 26.2959 28.8481C26.2959 28.6547 26.2392 28.5014 26.1259 28.3881C26.0125 28.2681 25.8625 28.2081 25.6759 28.2081ZM30.6124 28.5881C30.4924 28.5881 30.3724 28.6181 30.2524 28.6781C30.1324 28.7381 30.0258 28.8214 29.9324 28.9281C29.8391 29.0281 29.7624 29.1514 29.7024 29.2981C29.6424 29.4447 29.6124 29.6081 29.6124 29.7881V32.5281H28.4724V30.0081C28.4724 29.6081 28.4458 29.2747 28.3924 29.0081C28.3391 28.7347 28.2824 28.5147 28.2224 28.3481C28.1491 28.1547 28.0691 27.9981 27.9824 27.8781L28.8824 27.5181C28.9424 27.5914 29.0058 27.6814 29.0724 27.7881C29.1258 27.8814 29.1791 27.9914 29.2324 28.1181C29.2858 28.2447 29.3291 28.3947 29.3624 28.5681C29.4958 28.1814 29.6891 27.9047 29.9424 27.7381C30.1958 27.5647 30.4824 27.4781 30.8024 27.4781C30.9558 27.4781 31.0991 27.4981 31.2324 27.5381C31.3658 27.5714 31.4291 27.5881 31.4224 27.5881L31.1024 28.6981C31.1091 28.6981 31.0691 28.6814 30.9824 28.6481C30.9024 28.6081 30.7791 28.5881 30.6124 28.5881Z" fill="#6C757D"/>
</svg>
