<svg width="30" height="36" viewBox="0 0 30 36" fill="none" xmlns="http://www.w3.org/2000/svg">
    <path d="M24.1533 16.9135C23.6794 15.8034 22.9915 14.7951 22.1282 13.9447C21.2675 13.0919 20.2479 12.4119 19.1257 11.9423C19.1156 11.9374 19.1056 11.9349 19.0955 11.9299C20.6609 10.812 21.6785 8.99095 21.6785 6.93641C21.6785 3.53288 18.8895 0.775269 15.4473 0.775269C12.0051 0.775269 9.21614 3.53288 9.21614 6.93641C9.21614 8.99095 10.2337 10.812 11.7991 11.9324C11.789 11.9374 11.779 11.9399 11.7689 11.9448C10.6433 12.4144 9.63323 13.0876 8.76639 13.9472C7.90385 14.7982 7.21615 15.8064 6.74127 16.916C6.27474 18.0023 6.02313 19.1669 6.00006 20.3468C5.99939 20.3734 6.0041 20.3997 6.0139 20.4244C6.0237 20.4491 6.0384 20.4716 6.05713 20.4906C6.07586 20.5096 6.09825 20.5247 6.12297 20.535C6.14769 20.5453 6.17424 20.5506 6.20107 20.5506H7.70861C7.81916 20.5506 7.9071 20.4636 7.90961 20.3568C7.95986 18.4389 8.73876 16.6427 10.1156 15.2813C11.5403 13.8727 13.4322 13.0976 15.4473 13.0976C17.4624 13.0976 19.3543 13.8727 20.779 15.2813C22.1558 16.6427 22.9347 18.4389 22.985 20.3568C22.9875 20.4661 23.0754 20.5506 23.186 20.5506H24.6935C24.7204 20.5506 24.7469 20.5453 24.7716 20.535C24.7963 20.5247 24.8187 20.5096 24.8375 20.4906C24.8562 20.4716 24.8709 20.4491 24.8807 20.4244C24.8905 20.3997 24.8952 20.3734 24.8945 20.3468C24.8694 19.1593 24.6207 18.0041 24.1533 16.9135ZM15.4473 11.2095C14.294 11.2095 13.2086 10.7648 12.392 9.95736C11.5754 9.14995 11.1257 8.07672 11.1257 6.93641C11.1257 5.7961 11.5754 4.72287 12.392 3.91546C13.2086 3.10806 14.294 2.66336 15.4473 2.66336C16.6006 2.66336 17.686 3.10806 18.5026 3.91546C19.3192 4.72287 19.7689 5.7961 19.7689 6.93641C19.7689 8.07672 19.3192 9.14995 18.5026 9.95736C17.686 10.7648 16.6006 11.2095 15.4473 11.2095Z" fill="#6C757D"/>
    <path d="M2.01348 25.7581C2.06014 25.7581 2.16681 25.7581 2.33348 25.7581C2.50014 25.7514 2.68681 25.7481 2.89348 25.7481C3.10014 25.7481 3.30681 25.7481 3.51348 25.7481C3.72014 25.7414 3.89014 25.7381 4.02348 25.7381C4.83681 25.7381 5.43681 25.9214 5.82348 26.2881C6.21014 26.6481 6.40348 27.1447 6.40348 27.7781C6.40348 28.0847 6.35014 28.3681 6.24348 28.6281C6.13681 28.8814 5.97681 29.1014 5.76348 29.2881C5.55681 29.4747 5.29681 29.6214 4.98348 29.7281C4.67681 29.8281 4.31681 29.8781 3.90348 29.8781H3.20348V32.5281H2.01348V25.7581ZM3.20348 28.9881H3.97348C4.39348 28.9881 4.69348 28.8781 4.87348 28.6581C5.05348 28.4381 5.14348 28.1581 5.14348 27.8181C5.14348 27.6647 5.12348 27.5147 5.08348 27.3681C5.04348 27.2214 4.97348 27.0914 4.87348 26.9781C4.78014 26.8581 4.65014 26.7647 4.48348 26.6981C4.32348 26.6247 4.12014 26.5881 3.87348 26.5881C3.72681 26.5881 3.59681 26.5881 3.48348 26.5881C3.37681 26.5881 3.28348 26.5914 3.20348 26.5981V28.9881ZM9.44738 28.5881C9.32738 28.5881 9.20738 28.6181 9.08738 28.6781C8.96738 28.7381 8.86072 28.8214 8.76738 28.9281C8.67405 29.0281 8.59738 29.1514 8.53738 29.2981C8.47738 29.4447 8.44738 29.6081 8.44738 29.7881V32.5281H7.30738V30.0081C7.30738 29.6081 7.28072 29.2747 7.22738 29.0081C7.17405 28.7347 7.11738 28.5147 7.05738 28.3481C6.98405 28.1547 6.90405 27.9981 6.81738 27.8781L7.71738 27.5181C7.77738 27.5914 7.84072 27.6814 7.90738 27.7881C7.96072 27.8814 8.01405 27.9914 8.06738 28.1181C8.12072 28.2447 8.16405 28.3947 8.19738 28.5681C8.33072 28.1814 8.52405 27.9047 8.77738 27.7381C9.03072 27.5647 9.31738 27.4781 9.63738 27.4781C9.79072 27.4781 9.93405 27.4981 10.0674 27.5381C10.2007 27.5714 10.264 27.5881 10.2574 27.5881L9.93738 28.6981C9.94405 28.6981 9.90405 28.6814 9.81738 28.6481C9.73738 28.6081 9.61405 28.5881 9.44738 28.5881ZM12.5861 27.4281C13.3527 27.4281 13.9094 27.6547 14.2561 28.1081C14.6027 28.5614 14.7761 29.1847 14.7761 29.9781C14.7761 30.3514 14.7294 30.7014 14.6361 31.0281C14.5427 31.3481 14.3994 31.6281 14.2061 31.8681C14.0194 32.1014 13.7827 32.2881 13.4961 32.4281C13.2094 32.5614 12.8761 32.6281 12.4961 32.6281C12.1161 32.6281 11.7861 32.5714 11.5061 32.4581C11.2327 32.3381 11.0061 32.1681 10.8261 31.9481C10.6461 31.7281 10.5127 31.4614 10.4261 31.1481C10.3461 30.8347 10.3061 30.4814 10.3061 30.0881C10.3061 29.7081 10.3527 29.3581 10.4461 29.0381C10.5394 28.7114 10.6794 28.4314 10.8661 28.1981C11.0594 27.9581 11.2994 27.7714 11.5861 27.6381C11.8727 27.4981 12.2061 27.4281 12.5861 27.4281ZM12.4861 28.2681C12.2927 28.2681 12.1327 28.3114 12.0061 28.3981C11.8861 28.4847 11.7894 28.6081 11.7161 28.7681C11.6494 28.9214 11.6027 29.1047 11.5761 29.3181C11.5494 29.5247 11.5361 29.7481 11.5361 29.9881C11.5361 30.2347 11.5494 30.4681 11.5761 30.6881C11.6094 30.9081 11.6661 31.1014 11.7461 31.2681C11.8261 31.4281 11.9327 31.5547 12.0661 31.6481C12.2061 31.7414 12.3827 31.7881 12.5961 31.7881C12.7894 31.7881 12.9461 31.7447 13.0661 31.6581C13.1927 31.5714 13.2894 31.4514 13.3561 31.2981C13.4294 31.1381 13.4794 30.9547 13.5061 30.7481C13.5327 30.5414 13.5461 30.3181 13.5461 30.0781C13.5461 29.8314 13.5294 29.5981 13.4961 29.3781C13.4694 29.1581 13.4161 28.9647 13.3361 28.7981C13.2561 28.6314 13.1461 28.5014 13.0061 28.4081C12.8727 28.3147 12.6994 28.2681 12.4861 28.2681ZM18.4021 26.3781C18.3821 26.3581 18.3187 26.3214 18.2121 26.2681C18.1121 26.2147 18.0154 26.1881 17.9221 26.1881C17.8621 26.1881 17.7887 26.1981 17.7021 26.2181C17.6154 26.2314 17.5321 26.2681 17.4521 26.3281C17.3721 26.3814 17.3021 26.4614 17.2421 26.5681C17.1887 26.6747 17.1621 26.8147 17.1621 26.9881C17.1621 27.0614 17.1654 27.1447 17.1721 27.2381C17.1854 27.3314 17.2087 27.4347 17.2421 27.5481H18.4821L18.3421 28.3581H17.3021V32.2781C17.3021 32.6781 17.2487 33.0114 17.1421 33.2781C17.0421 33.5514 16.9087 33.7781 16.7421 33.9581C16.5754 34.1447 16.3887 34.2981 16.1821 34.4181C15.9821 34.5447 15.7821 34.6581 15.5821 34.7581L15.1221 33.9981C15.3687 33.8714 15.5621 33.7347 15.7021 33.5881C15.8421 33.4481 15.9454 33.3047 16.0121 33.1581C16.0854 33.0181 16.1287 32.8814 16.1421 32.7481C16.1554 32.6147 16.1621 32.4947 16.1621 32.3881V28.3581H15.2621V27.5481H16.1321C16.1054 27.4481 16.0854 27.3447 16.0721 27.2381C16.0654 27.1314 16.0621 27.0314 16.0621 26.9381C16.0621 26.6714 16.1087 26.4347 16.2021 26.2281C16.3021 26.0214 16.4321 25.8514 16.5921 25.7181C16.7587 25.5847 16.9487 25.4847 17.1621 25.4181C17.3821 25.3447 17.6087 25.3081 17.8421 25.3081C18.1021 25.3081 18.3154 25.3514 18.4821 25.4381C18.6487 25.5181 18.7854 25.6147 18.8921 25.7281L18.4021 26.3781ZM20.3377 32.5681C19.9844 32.5681 19.7144 32.4647 19.5277 32.2581C19.341 32.0447 19.2477 31.7714 19.2477 31.4381V27.5481H20.3877V31.3381C20.3877 31.4914 20.411 31.5947 20.4577 31.6481C20.5044 31.7014 20.5744 31.7281 20.6677 31.7281C20.6944 31.7281 20.721 31.7281 20.7477 31.7281C20.781 31.7281 20.811 31.7247 20.8377 31.7181C20.8644 31.7181 20.8944 31.7147 20.9277 31.7081L21.0477 32.4281C21.001 32.4547 20.941 32.4781 20.8677 32.4981C20.8077 32.5181 20.731 32.5347 20.6377 32.5481C20.551 32.5614 20.451 32.5681 20.3377 32.5681ZM19.8377 25.3281C20.051 25.3281 20.2144 25.3914 20.3277 25.5181C20.441 25.6447 20.4977 25.8081 20.4977 26.0081C20.4977 26.2081 20.4377 26.3747 20.3177 26.5081C20.2044 26.6414 20.0344 26.7081 19.8077 26.7081C19.5944 26.7081 19.4277 26.6447 19.3077 26.5181C19.1944 26.3847 19.1377 26.2247 19.1377 26.0381C19.1377 25.8314 19.1944 25.6614 19.3077 25.5281C19.4277 25.3947 19.6044 25.3281 19.8377 25.3281ZM22.9063 32.5681C22.5263 32.5681 22.2463 32.4647 22.0663 32.2581C21.8863 32.0447 21.7963 31.7747 21.7963 31.4481V25.4781L22.9363 25.2681V31.3381C22.9363 31.4914 22.9663 31.5981 23.0263 31.6581C23.0863 31.7181 23.173 31.7481 23.2863 31.7481C23.353 31.7481 23.4163 31.7447 23.4763 31.7381C23.543 31.7314 23.603 31.7214 23.6563 31.7081C23.7163 31.6947 23.7696 31.6814 23.8163 31.6681L23.9563 32.3881C23.8696 32.4214 23.773 32.4514 23.6663 32.4781C23.573 32.5047 23.463 32.5247 23.3363 32.5381C23.2096 32.5581 23.0663 32.5681 22.9063 32.5681ZM24.31 30.1581C24.31 29.7114 24.37 29.3181 24.49 28.9781C24.6166 28.6381 24.7866 28.3547 25 28.1281C25.22 27.8947 25.4766 27.7214 25.77 27.6081C26.0633 27.4881 26.38 27.4281 26.72 27.4281C27.02 27.4281 27.2733 27.4647 27.48 27.5381C27.6933 27.6114 27.8666 27.7114 28 27.8381C28.1333 27.9647 28.23 28.1147 28.29 28.2881C28.3566 28.4614 28.39 28.6481 28.39 28.8481C28.39 29.0881 28.3233 29.3181 28.19 29.5381C28.0566 29.7514 27.8633 29.9414 27.61 30.1081C27.3633 30.2681 27.0633 30.3981 26.71 30.4981C26.3566 30.5914 25.96 30.6414 25.52 30.6481C25.54 30.8014 25.57 30.9481 25.61 31.0881C25.6566 31.2214 25.72 31.3414 25.8 31.4481C25.8866 31.5481 25.9966 31.6281 26.13 31.6881C26.2633 31.7481 26.43 31.7781 26.63 31.7781C26.7766 31.7781 26.9333 31.7614 27.1 31.7281C27.2666 31.6947 27.42 31.6547 27.56 31.6081C27.7266 31.5547 27.89 31.4947 28.05 31.4281L28.35 32.1381C28.1766 32.2247 27.99 32.3014 27.79 32.3681C27.6166 32.4281 27.4166 32.4814 27.19 32.5281C26.9633 32.5747 26.7233 32.5981 26.47 32.5981C26.0833 32.5981 25.7533 32.5414 25.48 32.4281C25.2066 32.3081 24.9833 32.1414 24.81 31.9281C24.6366 31.7147 24.51 31.4581 24.43 31.1581C24.35 30.8581 24.31 30.5247 24.31 30.1581ZM26.63 28.2081C26.41 28.2081 26.2266 28.2614 26.08 28.3681C25.94 28.4681 25.8266 28.6014 25.74 28.7681C25.6533 28.9281 25.59 29.1114 25.55 29.3181C25.5166 29.5181 25.4966 29.7214 25.49 29.9281C25.81 29.9147 26.08 29.8747 26.3 29.8081C26.5266 29.7347 26.71 29.6481 26.85 29.5481C26.99 29.4414 27.09 29.3281 27.15 29.2081C27.2166 29.0881 27.25 28.9681 27.25 28.8481C27.25 28.6547 27.1933 28.5014 27.08 28.3881C26.9666 28.2681 26.8166 28.2081 26.63 28.2081Z" fill="#6C757D"/>
</svg>
